<?xml version="1.0" encoding="UTF-8" standalone="no"?>
<!DOCTYPE svg PUBLIC "-//W3C//DTD SVG 1.1//EN" "http://www.w3.org/Graphics/SVG/1.1/DTD/svg11.dtd">
<svg version="1.1" xmlns="http://www.w3.org/2000/svg" xmlns:xlink="http://www.w3.org/1999/xlink" preserveAspectRatio="xMidYMid meet" viewBox="156.60917223132176 56.55639166588991 122.7141706803188 113.09465196940465" width="200" height="200"><defs><path d="M265.56 165.04L264.3 165.04" id="b4FLKCwMpf"></path><path d="M217.53 63.91C196.91 62.14 186.18 78.22 185.15 95.58C181.79 109.41 185.65 124.2 198.89 129.62C204.03 133.52 210.59 135.78 218.56 135.45C233.6 134.87 243.1 126.08 247.67 114.81C256.56 102.55 255.15 91.7 248.89 83.77C244.64 69.99 233.82 59.88 217.53 63.91ZM243.49 84.2C248.88 91.03 250.09 100.39 242.44 110.95C238.49 120.66 230.31 128.23 217.36 128.73C210.48 129.01 204.83 127.07 200.41 123.7C189 119.04 185.67 106.29 188.57 94.38C189.45 79.41 198.7 65.57 216.47 67.08C230.5 63.62 239.82 72.33 243.49 84.2Z" id="d7FhZSPjZV"></path><path d="M234.88 69.01C214.24 70.41 206.09 87.94 207.73 105.26C206.52 119.44 212.59 133.47 226.51 136.8C232.18 139.87 239 141.1 246.83 139.56C261.6 136.69 269.65 126.55 272.44 114.72C279.37 101.23 276.3 90.73 268.91 83.85C262.61 70.87 250.37 62.55 234.88 69.01ZM263.64 85.09C270.01 91.02 272.64 100.07 266.69 111.7C264.27 121.89 257.34 130.62 244.61 133.1C237.87 134.42 231.99 133.37 227.11 130.71C215.11 127.85 209.88 115.75 210.92 103.54C209.51 88.63 216.53 73.52 234.32 72.31C247.67 66.74 258.21 73.92 263.64 85.09Z" id="a29e6LLOXW"></path><path d="M225.42 58.45C204.8 56.69 194.07 72.77 193.05 90.12C189.69 103.95 193.55 118.75 206.79 124.16C211.92 128.06 218.48 130.33 226.46 129.99C241.49 129.42 250.98 120.62 255.56 109.36C264.45 97.09 263.03 86.24 256.78 78.31C252.53 64.53 241.71 54.42 225.42 58.45ZM251.38 78.74C256.76 85.58 257.98 94.92 250.33 105.49C246.39 115.2 238.21 122.77 225.25 123.27C218.38 123.55 212.73 121.6 208.3 118.24C196.89 113.58 193.57 100.84 196.46 88.92C197.35 73.96 206.59 60.11 224.35 61.63C238.39 58.16 247.72 66.87 251.38 78.74Z" id="a1ogVZjD"></path><path d="M233.67 61.71C213.05 59.94 202.32 76.02 201.3 93.39C197.94 107.21 201.79 122.01 215.04 127.42C220.18 131.32 226.73 133.59 234.71 133.25C249.75 132.68 259.24 123.89 263.82 112.62C272.7 100.35 271.28 89.49 265.04 81.57C260.78 67.79 249.96 57.68 233.67 61.71ZM259.63 82C265.02 88.83 266.24 98.18 258.58 108.75C254.64 118.46 246.46 126.03 233.5 126.53C226.63 126.82 220.98 124.87 216.56 121.51C205.14 116.85 201.82 104.1 204.72 92.19C205.6 77.21 214.84 63.36 232.61 64.89C246.65 61.42 255.97 70.13 259.63 82Z" id="b3ctjd5y1X"></path><path d="M224.65 72.77C204.03 71 193.3 87.08 192.28 104.44C188.92 118.26 192.78 133.06 206.02 138.48C211.16 142.38 217.71 144.64 225.69 144.3C240.72 143.73 250.22 134.94 254.79 123.67C263.68 111.41 262.27 100.56 256.02 92.63C251.76 78.84 240.94 68.75 224.65 72.77ZM250.62 93.05C256.01 99.89 257.23 109.23 249.57 119.8C245.62 129.52 237.44 137.08 224.49 137.58C217.62 137.86 211.97 135.92 207.55 132.56C196.13 127.9 192.81 115.15 195.71 103.23C196.58 88.28 205.82 74.42 223.6 75.94C237.63 72.47 246.95 81.18 250.62 93.05Z" id="dzaPd28Ml"></path><path d="M234.88 69.01C214.24 70.41 206.09 87.94 207.73 105.26C206.52 119.44 212.59 133.47 226.51 136.8C232.18 139.87 239 141.1 246.83 139.56C261.6 136.69 269.65 126.55 272.44 114.72C279.37 101.23 276.3 90.73 268.91 83.85C262.61 70.87 250.37 62.55 234.88 69.01ZM263.64 85.09C270.01 91.02 272.64 100.07 266.69 111.7C264.27 121.89 257.34 130.62 244.61 133.1C237.87 134.42 231.99 133.37 227.11 130.71C215.11 127.85 209.88 115.75 210.92 103.54C209.51 88.63 216.53 73.52 234.32 72.31C247.67 66.74 258.21 73.92 263.64 85.09Z" id="b6R1Tv35G"></path><path d="M225.42 58.45C204.8 56.69 194.07 72.77 193.05 90.12C189.69 103.95 193.55 118.75 206.79 124.16C211.92 128.06 218.48 130.33 226.46 129.99C241.49 129.42 250.98 120.62 255.56 109.36C264.45 97.09 263.03 86.24 256.78 78.31C252.53 64.53 241.71 54.42 225.42 58.45ZM251.38 78.74C256.76 85.58 257.98 94.92 250.33 105.49C246.39 115.2 238.21 122.77 225.25 123.27C218.38 123.55 212.73 121.6 208.3 118.24C196.89 113.58 193.57 100.84 196.46 88.92C197.35 73.96 206.59 60.11 224.35 61.63C238.39 58.16 247.72 66.87 251.38 78.74Z" id="a19CdzOlHs"></path><path d="M233.67 61.71C213.05 59.94 202.32 76.02 201.3 93.39C197.94 107.21 201.79 122.01 215.04 127.42C220.18 131.32 226.73 133.59 234.71 133.25C249.75 132.68 259.24 123.89 263.82 112.62C272.7 100.35 271.28 89.49 265.04 81.57C260.78 67.79 249.96 57.68 233.67 61.71ZM259.63 82C265.02 88.83 266.24 98.18 258.58 108.75C254.64 118.46 246.46 126.03 233.5 126.53C226.63 126.82 220.98 124.87 216.56 121.51C205.14 116.85 201.82 104.1 204.72 92.19C205.6 77.21 214.84 63.36 232.61 64.89C246.65 61.42 255.97 70.13 259.63 82Z" id="bu6TQs7Al"></path><path d="M217.53 63.91C196.91 62.14 186.18 78.22 185.15 95.58C181.79 109.41 185.65 124.2 198.89 129.62C204.03 133.52 210.59 135.78 218.56 135.45C233.6 134.87 243.1 126.08 247.67 114.81C256.56 102.55 255.15 91.7 248.89 83.77C244.64 69.99 233.82 59.88 217.53 63.91ZM243.49 84.2C248.88 91.03 250.09 100.39 242.44 110.95C238.49 120.66 230.31 128.23 217.36 128.73C210.48 129.01 204.83 127.07 200.41 123.7C189 119.04 185.67 106.29 188.57 94.38C189.45 79.41 198.7 65.57 216.47 67.08C230.5 63.62 239.82 72.33 243.49 84.2Z" id="a1queY7wz4"></path><path d="M224.65 72.77C204.03 71 193.3 87.08 192.28 104.44C188.92 118.26 192.78 133.06 206.02 138.48C211.16 142.38 217.71 144.64 225.69 144.3C240.72 143.73 250.22 134.94 254.79 123.67C263.68 111.41 262.27 100.56 256.02 92.63C251.76 78.84 240.94 68.75 224.65 72.77ZM250.62 93.05C256.01 99.89 257.23 109.23 249.57 119.8C245.62 129.52 237.44 137.08 224.49 137.58C217.62 137.86 211.97 135.92 207.55 132.56C196.13 127.9 192.81 115.15 195.71 103.23C196.58 88.28 205.82 74.42 223.6 75.94C237.63 72.47 246.95 81.18 250.62 93.05Z" id="a1IXECJzN"></path><path d="M157.67 136.63C157.71 135.7 157.8 135.14 157.93 134.94C158.06 134.74 158.21 134.61 158.39 134.55C158.56 134.49 159.58 134.43 161.42 134.37C163.28 134.31 164.58 134.28 165.33 134.28C166.01 134.29 171.46 134.3 172.14 134.31C173.23 134.31 173.99 134.43 174.41 134.69C174.84 134.96 175.05 135.41 175.05 136.05C175.05 136.21 175.04 136.46 175.01 136.79C174.93 137.65 174.9 139.15 174.9 141.31C174.9 141.64 174.94 144.25 174.94 144.58C174.94 146.16 174.81 147.2 174.54 147.72C174.27 148.24 173.68 148.49 172.74 148.49C172.47 148.49 172.06 148.47 171.53 148.41C170.99 148.36 170.65 148.33 170.47 148.33C168.68 148.33 166.59 148.38 164.22 148.48C161.84 148.57 160.42 148.67 159.94 148.79C159.43 148.91 159.06 148.97 158.82 148.97C158.48 148.97 158.2 148.88 157.99 148.7C157.77 148.52 157.65 148 157.65 147.14C157.65 146.72 157.63 144.64 157.61 140.9C157.62 138.67 157.65 137.25 157.67 136.63ZM173.06 135.31C172.52 135.11 170.8 135 167.88 135C166.12 135 164.45 135.04 162.86 135.09C161.28 135.14 160.29 135.2 159.9 135.29C159.52 135.37 159.24 135.58 159.05 135.93C158.87 136.27 158.75 136.68 158.71 137.15C158.66 137.61 158.63 138.39 158.63 139.46C158.63 140.61 158.66 142.07 158.73 143.83C158.79 145.58 158.82 146.59 158.82 146.85C158.83 147.1 158.9 147.33 159.05 147.53C159.2 147.73 159.51 147.83 160 147.83C160.65 147.83 162.71 147.76 166.19 147.62C166.59 147.6 169.84 147.46 170.25 147.44C171.74 147.4 172.62 147.31 172.9 147.2C173.19 147.08 173.39 146.68 173.54 146.01C173.69 145.33 173.76 143.85 173.79 141.56C173.79 141.3 173.81 140.01 173.84 137.69C173.68 136.23 173.42 135.44 173.06 135.31ZM164.17 144.69C163.97 144.69 163.66 144.74 163.24 144.84C162.81 144.95 162.53 145 162.38 145C161.97 145 161.79 144.49 161.8 143.46C161.81 143.16 161.85 140.78 161.85 140.49C161.85 139.49 162.08 138.98 162.54 138.98C162.67 138.98 162.9 138.99 163.23 139.02C163.57 139.05 163.76 139.05 163.81 139.05C164.26 139.03 167.85 138.92 168.3 138.9C169.35 138.9 170 138.96 170.25 139.1C170.49 139.22 170.61 139.43 170.61 139.74C170.61 139.93 170.59 140.27 170.54 140.75C170.48 141.23 170.45 141.53 170.44 141.64C170.38 143.02 170.25 143.88 170.04 144.22C169.83 144.55 169.28 144.72 168.4 144.72C168.24 144.72 166.95 144.68 166.79 144.68C166.36 144.68 166.03 144.72 165.81 144.81C165.57 144.9 165.05 145.32 164.27 146.07C163.47 146.83 162.84 147.21 162.33 147.21C161.86 147.21 161.62 147.08 161.62 146.81C161.62 146.63 162.08 146.35 162.98 145.97C163.88 145.59 164.4 145.19 164.56 144.77C164.47 144.72 164.33 144.69 164.17 144.69ZM169.71 137.58C169.54 137.88 169.33 138.06 169.1 138.11C168.87 138.16 168.49 138.18 167.98 138.18C167.85 138.18 166.79 138.16 166.66 138.16C165.84 138.16 165.12 138.19 164.51 138.27C164.36 138.29 163.15 138.43 163 138.45C162.42 138.45 162.12 137.99 162.12 137.07C162.12 136.58 162.18 136.26 162.32 136.06C162.45 135.88 162.72 135.78 163.16 135.78C163.25 135.79 163.7 135.8 164.51 135.82C166.53 135.78 167.65 135.76 167.88 135.75C168.87 135.75 169.46 135.84 169.67 136C169.88 136.17 169.98 136.4 169.98 136.7C169.98 136.99 169.89 137.28 169.71 137.58ZM166.01 142.13C167.75 142.12 168.73 142.07 168.94 142.02C169.16 141.96 169.27 141.8 169.27 141.55C169.27 141.16 168.95 140.97 168.3 140.97C168.06 140.97 166.18 141 165.95 141.01C164.13 141.04 163.16 141.12 163.06 141.26C162.96 141.39 162.9 141.52 162.9 141.66C162.91 141.98 163.14 142.15 163.58 142.15C164.06 142.15 165.77 142.13 166.01 142.13ZM167.8 144.04C168.3 144.04 168.66 144.01 168.88 143.95C169.09 143.9 169.2 143.72 169.2 143.42C169.2 143.08 169.05 142.87 168.76 142.81C168.48 142.75 167.57 142.72 166.03 142.72C164.4 142.72 163.49 142.77 163.3 142.86C163.1 142.94 163 143.16 163 143.51C163 143.92 163.05 144.13 163.17 144.15C163.29 144.16 163.45 144.16 163.65 144.16C164.48 144.13 167.38 144.05 167.8 144.04ZM166.38 140.48C168.08 140.46 168.97 140.41 169.09 140.36C169.19 140.31 169.24 140.21 169.24 140.08C169.24 139.75 168.89 139.58 168.19 139.58C167.98 139.58 166.3 139.57 166.09 139.56C165.16 139.56 164.41 139.6 163.86 139.66C163.3 139.72 163.01 139.88 163.01 140.14C163.01 140.39 163.18 140.52 163.51 140.52C163.73 140.52 164.69 140.5 166.38 140.48ZM165.34 137.64C165.87 137.59 166.2 137.57 166.36 137.57C167.63 137.57 168.35 137.52 168.51 137.43C168.66 137.35 168.74 137.19 168.74 136.98C168.74 136.79 168.66 136.64 168.51 136.51C168.36 136.39 167.91 136.32 167.17 136.32C165.05 136.32 163.87 136.39 163.64 136.51C163.39 136.64 163.28 136.83 163.28 137.08C163.28 137.5 163.59 137.71 164.23 137.71C164.45 137.71 164.82 137.69 165.34 137.64ZM170.4 146.9C170.11 146.9 169.59 146.71 168.82 146.33C168.06 145.94 167.67 145.66 167.67 145.49C167.67 145.41 167.73 145.3 167.84 145.19C167.95 145.08 168.1 145.03 168.25 145.03C168.57 145.03 168.85 145.14 169.1 145.36C169.35 145.58 169.65 145.83 170.01 146.11C170.37 146.38 170.54 146.62 170.54 146.8C170.54 146.87 170.49 146.9 170.4 146.9Z" id="a1Lb39Wp9k"></path><path d="M175.81 154.17C175.81 153.88 175.75 153.49 175.63 153.02C175.52 152.53 175.4 152.22 175.28 152.06C175.17 151.89 175.11 151.73 175.11 151.58C175.11 151.41 175.19 151.25 175.36 151.11C175.53 150.97 175.7 150.9 175.89 150.9C176.13 150.9 176.4 151.02 176.68 151.26C176.96 151.5 177.1 151.74 177.1 151.98C177.1 152.23 177.04 152.6 176.9 153.1C176.78 153.61 176.71 153.98 176.71 154.23C176.71 154.41 176.91 154.5 177.31 154.5C178.09 154.5 184.35 154.5 185.13 154.5C186.29 154.5 186.88 154.53 186.88 154.59C186.88 154.74 186.72 155.07 186.4 155.59C186.07 156.11 185.58 156.36 184.94 156.36C184.79 156.36 184.35 156.27 183.61 156.07C182.86 155.86 182.27 155.73 181.84 155.71C181.41 155.68 180.78 155.67 179.93 155.67C179.64 155.67 178.39 155.64 176.23 155.59C176.17 155.79 176.05 156.18 175.88 156.73C175.7 157.28 175.61 157.6 175.61 157.67C175.61 157.89 176.2 158.15 177.36 158.45C178.54 158.75 179.31 158.9 179.67 158.9C179.75 158.9 180.35 158.88 180.43 158.88C181.06 158.88 181.38 159.18 181.38 159.78C181.38 160 181.19 160.32 180.83 160.75C180.46 161.17 180.07 161.94 179.65 163.03C179.23 164.13 178.83 164.9 178.45 165.33C178.07 165.77 177.74 166.1 177.43 166.32C177.14 166.54 176.57 166.65 175.75 166.65C175.62 166.65 175.41 166.59 175.16 166.45C174.89 166.31 174.75 166.21 174.75 166.13C174.75 166.1 174.79 166.07 174.85 166.07C175.78 165.92 176.76 165.26 177.76 164.09C178.76 162.92 179.27 161.7 179.27 160.44C179.27 159.94 178.77 159.58 177.76 159.33C176.76 159.09 176.1 158.97 175.78 158.97C175.45 158.97 175.25 159.03 175.21 159.14C174.37 161.29 172.87 163 170.69 164.29C168.51 165.58 167.13 166.22 166.55 166.22C166.33 166.22 166.1 166.14 165.88 165.99C165.66 165.84 165.54 165.67 165.54 165.46C165.54 165.1 165.81 164.84 166.35 164.67C167.98 164.07 169.32 163.49 170.36 162.92C171.41 162.35 172.35 161.47 173.23 160.3C174.1 159.13 174.7 157.54 175.05 155.59C172.98 155.59 171.2 155.72 169.73 156C169.51 156.04 167.75 156.36 167.53 156.4C167 156.4 166.73 156.2 166.73 155.81C166.73 155.53 166.99 155.24 167.51 154.94C168.03 154.64 168.44 154.48 168.76 154.48C168.84 154.48 169.06 154.51 169.4 154.58C169.74 154.64 170.15 154.67 170.63 154.67C173.47 154.68 175.19 154.61 175.77 154.45C175.8 154.38 175.81 154.29 175.81 154.17Z" id="by2udqTXl"></path><path d="M197.38 154.72L197.38 156.24L192.8 156.24L192.8 158.57L197.14 158.57L197.14 160.08L192.8 160.08L192.8 162.65L197.61 162.65L197.61 164.16L191.12 164.16L191.12 154.72L197.38 154.72Z" id="d7WAJefSod"></path><path d="M201.3 154.72L201.3 162.65L205.32 162.65L205.32 164.16L199.61 164.16L199.61 154.72L201.3 154.72Z" id="a12bii63F8"></path><path d="M213.14 154.72L213.14 156.24L208.56 156.24L208.56 158.57L212.9 158.57L212.9 160.08L208.56 160.08L208.56 162.65L213.38 162.65L213.38 164.16L206.89 164.16L206.89 154.72L213.14 154.72Z" id="ba5CnuMb1"></path><path d="M217.98 154.72L220.5 161.34L223.05 154.72L225.58 154.72L225.58 164.17L223.98 164.17L223.98 156.32L223.96 156.32L221.09 164.17L219.91 164.17L217.04 156.32L217.02 156.32L217.02 164.17L215.41 164.17L215.41 154.72L217.98 154.72Z" id="c8ApAkWZEi"></path><path d="M234.08 154.72L234.08 156.24L229.49 156.24L229.49 158.57L233.84 158.57L233.84 160.08L229.49 160.08L229.49 162.65L234.31 162.65L234.31 164.16L227.82 164.16L227.82 154.72L234.08 154.72Z" id="aankDOb"></path><path d="M238.54 154.72L243.13 161.74L243.15 161.76L243.13 161.76L243.15 161.74L243.15 154.72L244.83 154.72L244.83 164.17L242.7 164.17L238.02 156.92L237.99 156.92L237.99 164.17L236.31 164.17L236.31 154.72L238.54 154.72Z" id="a37UT8lj5"></path><path d="M246.32 156.24L246.32 154.72L253.79 154.72L253.79 156.24L250.9 156.24L250.9 164.17L249.22 164.17L249.22 156.24L246.32 156.24Z" id="ahUYfh9u5"></path><path d="M259.19 156.17C258.89 156.04 258.59 155.99 258.25 155.99C258.05 155.99 257.87 156.01 257.69 156.06C257.51 156.1 257.34 156.17 257.19 156.27C257.04 156.37 256.93 156.5 256.84 156.65C256.75 156.81 256.71 157 256.71 157.21C256.71 157.52 256.82 157.77 257.04 157.94C257.27 158.1 257.54 158.25 257.87 158.38C258.2 158.51 258.56 158.63 258.95 158.74C259.34 158.86 259.7 159.02 260.03 159.22C260.36 159.43 260.63 159.7 260.85 160.04C261.07 160.38 261.19 160.83 261.19 161.39C261.19 161.9 261.09 162.34 260.91 162.73C260.71 163.1 260.47 163.41 260.16 163.67C259.84 163.91 259.47 164.1 259.05 164.23C258.63 164.36 258.19 164.41 257.73 164.41C257.13 164.41 256.58 164.32 256.03 164.12C255.49 163.93 255.03 163.6 254.62 163.14C254.75 163.02 255.77 162.03 255.9 161.91C256.1 162.22 256.37 162.46 256.7 162.64C257.04 162.81 257.39 162.9 257.77 162.9C257.96 162.9 258.16 162.87 258.35 162.82C258.55 162.76 258.73 162.69 258.89 162.58C259.05 162.47 259.18 162.34 259.27 162.17C259.38 162.01 259.42 161.81 259.42 161.6C259.42 161.25 259.31 160.99 259.08 160.8C258.86 160.61 258.59 160.46 258.26 160.32C257.93 160.19 257.57 160.08 257.18 159.95C256.78 159.84 256.42 159.69 256.1 159.49C255.77 159.29 255.49 159.02 255.27 158.68C255.05 158.35 254.94 157.9 254.94 157.34C254.94 156.85 255.04 156.43 255.23 156.07C255.43 155.72 255.69 155.42 256.02 155.18C256.34 154.95 256.71 154.78 257.13 154.66C257.55 154.54 257.98 154.49 258.41 154.49C258.91 154.49 259.39 154.56 259.87 154.71C260.32 154.87 260.75 155.11 261.12 155.46C261.04 155.54 260.63 155.97 259.91 156.74C259.63 156.44 259.39 156.25 259.19 156.17Z" id="a1opOCp6jb"></path></defs><g><g><use xlink:href="#b4FLKCwMpf" opacity="1" fill="#000000" fill-opacity="0"></use><g><use xlink:href="#b4FLKCwMpf" opacity="1" fill-opacity="0" stroke="#000000" stroke-width="1" stroke-opacity="0"></use></g></g><g><use xlink:href="#d7FhZSPjZV" opacity="1" fill="#ffffff" fill-opacity="1"></use><g><use xlink:href="#d7FhZSPjZV" opacity="1" fill-opacity="0" stroke="#000000" stroke-width="1" stroke-opacity="0"></use></g></g><g><use xlink:href="#a29e6LLOXW" opacity="1" fill="#ffffff" fill-opacity="1"></use><g><use xlink:href="#a29e6LLOXW" opacity="1" fill-opacity="0" stroke="#000000" stroke-width="1" stroke-opacity="0"></use></g></g><g><use xlink:href="#a1ogVZjD" opacity="1" fill="#ffffff" fill-opacity="1"></use><g><use xlink:href="#a1ogVZjD" opacity="1" fill-opacity="0" stroke="#000000" stroke-width="1" stroke-opacity="0"></use></g></g><g><use xlink:href="#b3ctjd5y1X" opacity="1" fill="#ffffff" fill-opacity="1"></use><g><use xlink:href="#b3ctjd5y1X" opacity="1" fill-opacity="0" stroke="#000000" stroke-width="1" stroke-opacity="0"></use></g></g><g><use xlink:href="#dzaPd28Ml" opacity="1" fill="#ffffff" fill-opacity="1"></use><g><use xlink:href="#dzaPd28Ml" opacity="1" fill-opacity="0" stroke="#000000" stroke-width="1" stroke-opacity="0"></use></g></g><g><use xlink:href="#b6R1Tv35G" opacity="1" fill="#fdc180" fill-opacity="1"></use><g><use xlink:href="#b6R1Tv35G" opacity="1" fill-opacity="0" stroke="#000000" stroke-width="1" stroke-opacity="0"></use></g></g><g><use xlink:href="#a19CdzOlHs" opacity="1" fill="#fbb034" fill-opacity="1"></use><g><use xlink:href="#a19CdzOlHs" opacity="1" fill-opacity="0" stroke="#000000" stroke-width="1" stroke-opacity="0"></use></g></g><g><use xlink:href="#bu6TQs7Al" opacity="1" fill="#f4c182" fill-opacity="1"></use><g><use xlink:href="#bu6TQs7Al" opacity="1" fill-opacity="0" stroke="#000000" stroke-width="1" stroke-opacity="0"></use></g></g><g><use xlink:href="#a1queY7wz4" opacity="1" fill="#ed1556" fill-opacity="1"></use><g><use xlink:href="#a1queY7wz4" opacity="1" fill-opacity="0" stroke="#000000" stroke-width="1" stroke-opacity="0"></use></g></g><g><use xlink:href="#a1IXECJzN" opacity="1" fill="#820024" fill-opacity="1"></use><g><use xlink:href="#a1IXECJzN" opacity="1" fill-opacity="0" stroke="#000000" stroke-width="1" stroke-opacity="0"></use></g></g><g><use xlink:href="#a1Lb39Wp9k" opacity="1" fill="#820024" fill-opacity="1"></use><g><use xlink:href="#a1Lb39Wp9k" opacity="1" fill-opacity="0" stroke="#000000" stroke-width="1" stroke-opacity="0"></use></g></g><g><use xlink:href="#by2udqTXl" opacity="1" fill="#820024" fill-opacity="1"></use><g><use xlink:href="#by2udqTXl" opacity="1" fill-opacity="0" stroke="#000000" stroke-width="1" stroke-opacity="0"></use></g></g><g><use xlink:href="#d7WAJefSod" opacity="1" fill="#820024" fill-opacity="1"></use><g><use xlink:href="#d7WAJefSod" opacity="1" fill-opacity="0" stroke="#000000" stroke-width="1" stroke-opacity="0"></use></g></g><g><use xlink:href="#a12bii63F8" opacity="1" fill="#820024" fill-opacity="1"></use><g><use xlink:href="#a12bii63F8" opacity="1" fill-opacity="0" stroke="#000000" stroke-width="1" stroke-opacity="0"></use></g></g><g><use xlink:href="#ba5CnuMb1" opacity="1" fill="#820024" fill-opacity="1"></use><g><use xlink:href="#ba5CnuMb1" opacity="1" fill-opacity="0" stroke="#000000" stroke-width="1" stroke-opacity="0"></use></g></g><g><use xlink:href="#c8ApAkWZEi" opacity="1" fill="#820024" fill-opacity="1"></use><g><use xlink:href="#c8ApAkWZEi" opacity="1" fill-opacity="0" stroke="#000000" stroke-width="1" stroke-opacity="0"></use></g></g><g><use xlink:href="#aankDOb" opacity="1" fill="#820024" fill-opacity="1"></use><g><use xlink:href="#aankDOb" opacity="1" fill-opacity="0" stroke="#000000" stroke-width="1" stroke-opacity="0"></use></g></g><g><use xlink:href="#a37UT8lj5" opacity="1" fill="#820024" fill-opacity="1"></use><g><use xlink:href="#a37UT8lj5" opacity="1" fill-opacity="0" stroke="#000000" stroke-width="1" stroke-opacity="0"></use></g></g><g><use xlink:href="#ahUYfh9u5" opacity="1" fill="#820024" fill-opacity="1"></use><g><use xlink:href="#ahUYfh9u5" opacity="1" fill-opacity="0" stroke="#000000" stroke-width="1" stroke-opacity="0"></use></g></g><g><use xlink:href="#a1opOCp6jb" opacity="1" fill="#820024" fill-opacity="1"></use><g><use xlink:href="#a1opOCp6jb" opacity="1" fill-opacity="0" stroke="#000000" stroke-width="1" stroke-opacity="0"></use></g></g></g></svg>